<svg width="50" height="50" viewBox="0 0 50 50" fill="none" xmlns="http://www.w3.org/2000/svg">
<path d="M42.8297 36.7029L39.8297 39.6525L38.0331 37.8778C37.7008 37.5511 37.162 37.5511 36.8298 37.8778C36.4975 38.2045 36.4975 38.7342 36.8298 39.0609L39.2281 41.419C39.387 41.5768 39.6038 41.6655 39.8297 41.6655C40.0557 41.6655 40.2721 41.5768 40.4314 41.419L44.0669 37.8778C44.3086 37.6744 44.4141 37.3546 44.3396 37.0503C44.2651 36.7456 44.0235 36.508 43.714 36.4347C43.4044 36.3615 43.0792 36.4653 42.8719 36.7029H42.8297Z" fill="#FFBB01"/>
<path d="M44.067 30.9123V28.3292C44.067 27.8691 43.6875 27.496 43.2195 27.496H40.6772V26.6628C40.6772 25.2824 41.8155 24.1632 43.2195 24.1632C43.6875 24.1632 44.067 23.7901 44.067 23.33C44.067 22.8698 43.6875 22.4968 43.2195 22.4968C40.8796 22.4968 38.9823 24.3621 38.9823 26.6628V27.496H36.44C35.972 27.496 35.5926 27.8691 35.5926 28.3292V30.9123C31.2466 32.8708 28.8751 37.5414 29.8943 42.1334C30.9139 46.7258 35.0489 50.0001 39.8298 50.0001C44.6103 50.0001 48.7457 46.7258 49.7652 42.1334C50.7844 37.5414 48.413 32.8708 44.067 30.9123ZM40.6772 48.3263V47.4931C40.6772 47.033 40.2978 46.6599 39.8298 46.6599C39.3618 46.6599 38.9823 47.033 38.9823 47.4931V48.3263C34.9413 47.9455 31.7427 44.8006 31.3554 40.8274H32.2028C32.6708 40.8274 33.0503 40.4543 33.0503 39.9942C33.0503 39.5341 32.6708 39.161 32.2028 39.161H31.3554C31.6748 36.0491 33.7396 33.3753 36.7028 32.237C37.0288 32.1133 37.244 31.8057 37.2452 31.4619V29.1625H42.3299V31.4619C42.3307 31.8057 42.5459 32.1133 42.8719 32.237C45.8682 33.3505 47.9698 36.0291 48.3042 39.161H47.4567C46.9887 39.161 46.6093 39.5341 46.6093 39.9942C46.6093 40.4543 46.9887 40.8274 47.4567 40.8274H48.3042C47.9169 44.8006 44.7183 47.9455 40.6772 48.3263Z" fill="#FFBB01"/>
<path d="M27.296 43.327C27.1181 43.327 4.2372 43.327 4.2372 43.327C2.83321 43.327 1.69488 42.2078 1.69488 40.8274L1.69488 14.1646L45.7617 14.1646V29.5457C45.7617 30.0058 46.1412 30.3789 46.6092 30.3789C47.0771 30.3789 47.4566 30.0058 47.4566 29.5457V8.33212C47.4566 6.03143 45.5594 4.16606 43.2194 4.16606H41.5245V3.33285C41.5245 2.87271 41.1451 2.49964 40.6771 2.49964C40.2091 2.49964 39.8296 2.87271 39.8296 3.33285V6.6657C39.8296 7.58598 39.0708 8.33212 38.1348 8.33212C37.1988 8.33212 36.4399 7.58598 36.4399 6.6657V3.33285C36.4399 2.41257 37.1988 1.66642 38.1348 1.66642C38.6028 1.66642 38.9822 1.29335 38.9822 0.833212C38.9822 0.373074 38.6028 0 38.1348 0C36.2628 0 34.745 1.4923 34.745 3.33285V4.16606H27.1181V3.33285C27.1181 2.87271 26.7386 2.49964 26.2706 2.49964C25.8026 2.49964 25.4232 2.87271 25.4232 3.33285V6.6657C25.4232 7.58598 24.6643 8.33212 23.7283 8.33212C22.7923 8.33212 22.0334 7.58598 22.0334 6.6657V3.33285C22.0334 2.41257 22.7923 1.66642 23.7283 1.66642C24.1963 1.66642 24.5757 1.29335 24.5757 0.833212C24.5757 0.373074 24.1963 0 23.7283 0C21.8563 0 20.3385 1.4923 20.3385 3.33285V4.16606L12.7116 4.16606V3.33285C12.7116 2.87271 12.3321 2.49964 11.8641 2.49964C11.3962 2.49964 11.0167 2.87271 11.0167 3.33285V6.6657C11.0167 7.58598 10.2578 8.33212 9.32183 8.33212C8.38584 8.33212 7.62695 7.58598 7.62695 6.6657V3.33285C7.62695 2.41257 8.38584 1.66642 9.32183 1.66642C9.78983 1.66642 10.1693 1.29335 10.1693 0.833212C10.1693 0.373074 9.78983 0 9.32183 0C7.44985 0 5.93207 1.4923 5.93207 3.33285V4.16606H4.2372C1.89722 4.16606 0 6.03143 0 8.33212L0 40.8274C0 43.1281 1.89722 44.9935 4.2372 44.9935H23.7283C28.1774 44.9935 28.1774 44.9935 28.1774 44.1603C28.1786 43.9389 28.09 43.7257 27.9316 43.5687C27.7636 43.4043 27.5331 43.3165 27.296 43.327ZM4.2372 5.83249H5.93207V6.6657C5.93207 8.50625 7.44985 9.99855 9.32183 9.99855C11.1938 9.99855 12.7116 8.50625 12.7116 6.6657V5.83249L20.3385 5.83249V6.6657C20.3385 8.50625 21.8563 9.99855 23.7283 9.99855C25.6003 9.99855 27.1181 8.50625 27.1181 6.6657V5.83249H34.745V6.6657C34.745 8.50625 36.2628 9.99855 38.1348 9.99855C40.0067 9.99855 41.5245 8.50625 41.5245 6.6657V5.83249H43.2194C44.6234 5.83249 45.7617 6.95171 45.7617 8.33212V12.4982L1.69488 12.4982L1.69488 8.33212C1.69488 6.95171 2.83321 5.83249 4.2372 5.83249Z" fill="#FFBB01"/>
<path d="M15.254 17.4975C15.254 17.0373 14.8746 16.6642 14.4066 16.6642H7.62704C7.15905 16.6642 6.7796 17.0373 6.7796 17.4975V24.1632C6.7796 24.6233 7.15905 24.9964 7.62704 24.9964H14.4066C14.8746 24.9964 15.254 24.6233 15.254 24.1632V17.4975ZM13.5591 23.3299H8.47448V18.3307H13.5591V23.3299Z" fill="#FFBB01"/>
<path d="M14.4066 29.9956C14.8746 29.9956 15.254 29.6226 15.254 29.1624C15.254 28.7023 14.8746 28.3292 14.4066 28.3292H7.62704C7.15905 28.3292 6.7796 28.7023 6.7796 29.1624V35.8281C6.7796 36.2883 7.15905 36.6613 7.62704 36.6613H14.4066C14.8746 36.6613 15.254 36.2883 15.254 35.8281V32.4953C15.254 32.0351 14.8746 31.6621 14.4066 31.6621C13.9386 31.6621 13.5591 32.0351 13.5591 32.4953V34.9949H8.47448V29.9956H14.4066Z" fill="#FFBB01"/>
<path d="M19.4913 28.3292C19.0233 28.3292 18.6439 28.7023 18.6439 29.1624V35.8281C18.6439 36.2883 19.0233 36.6613 19.4913 36.6613H26.2708C26.7388 36.6613 27.1182 36.2883 27.1182 35.8281V29.1624C27.1182 28.7023 26.7388 28.3292 26.2708 28.3292H19.4913ZM25.4234 34.9949H20.3387V29.9956H25.4234V34.9949Z" fill="#FFBB01"/>
<path d="M38.1348 23.3299C38.6028 23.3299 38.9822 22.9569 38.9822 22.4967V17.4975C38.9822 17.0373 38.6028 16.6642 38.1348 16.6642H31.3553C30.8873 16.6642 30.5079 17.0373 30.5079 17.4975V24.1632C30.5079 24.6233 30.8873 24.9964 31.3553 24.9964C31.8233 24.9964 32.2027 24.6233 32.2027 24.1632V18.3307H37.2874V22.4967C37.2874 22.9569 37.6668 23.3299 38.1348 23.3299Z" fill="#FFBB01"/>
<path d="M26.8724 16.9059C26.7131 16.7481 26.4967 16.6594 26.2708 16.6594C26.0448 16.6594 25.828 16.7481 25.6691 16.9059L22.881 19.6553L20.0929 16.9059C19.7606 16.5792 19.2219 16.5792 18.8896 16.9059C18.5573 17.2326 18.5573 17.7623 18.8896 18.089L21.686 20.8303L18.8896 23.5716C18.7291 23.7278 18.6389 23.941 18.6389 24.1632C18.6389 24.3853 18.7291 24.5985 18.8896 24.7547C19.0485 24.9126 19.2653 25.0012 19.4913 25.0012C19.7172 25.0012 19.9336 24.9126 20.0929 24.7547L22.881 22.0053L25.6691 24.7547C25.828 24.9126 26.0448 25.0012 26.2708 25.0012C26.4967 25.0012 26.7131 24.9126 26.8724 24.7547C27.033 24.5985 27.1232 24.3853 27.1232 24.1632C27.1232 23.941 27.033 23.7278 26.8724 23.5716L24.076 20.8303L26.8724 18.089C27.033 17.9328 27.1232 17.7196 27.1232 17.4975C27.1232 17.2753 27.033 17.0621 26.8724 16.9059Z" fill="#FFBB01"/>
</svg>
